<svg xmlns="http://www.w3.org/2000/svg" xmlns:xlink="http://www.w3.org/1999/xlink" xmlns:lucid="lucid" width="1010.87" height="998.46"><g transform="translate(-440 -20)" lucid:page-tab-id="0_0"><path d="M0 0h1870.87v1322.83H0z" fill="#fff"/><path d="M664 260c-13.25 0-24 10.75-24 24v72c0 13.25 10.75 24 24 24h112c13.25 0 24-10.75 24-24v-72c0-13.25-10.75-24-24-24z" stroke="#333" stroke-width="5" fill="#00c2a8"/><path d="M640 304h160" stroke="#333" stroke-width="5" fill="none"/><use xlink:href="#a" transform="matrix(1,0,0,1,672,260) translate(21.074999999999996 25.6)"/><use xlink:href="#b" transform="matrix(1,0,0,1,656,320) translate(0.1249999999999929 25.6)"/><use xlink:href="#c" transform="matrix(1,0,0,1,656,320) translate(38.074999999999996 25.6)"/><path d="M955.43 60c0 11.05-8.95 20-20 20-11.04 0-20-8.95-20-20s8.96-20 20-20c11.05 0 20 8.95 20 20z" stroke="#666" stroke-width="5"/><path d="M600 166a6 6 0 0 1 6-6h228a6 6 0 0 1 6 6v48a6 6 0 0 1-6 6H606a6 6 0 0 1-6-6z" stroke="#000" stroke-opacity="0" fill="#fff" fill-opacity="0"/><use xlink:href="#d" transform="matrix(1,0,0,1,605,165) translate(7.314814814814852 32.91666666666666)"/><path d="M1055.43 166a6 6 0 0 1 6-6h228a6 6 0 0 1 6 6v48a6 6 0 0 1-6 6h-228a6 6 0 0 1-6-6z" stroke="#000" stroke-opacity="0" fill="#fff" fill-opacity="0"/><use xlink:href="#e" transform="matrix(1,0,0,1,1060.4330708661416,165) translate(-7.870370370370324 31.666666666666664)"/><path d="M935.43 83v1.6m0 2.17V90m0 2.14v3.23m0 2.15v3.23m0 2.15v3.23m0 2.15v3.22m0 2.16v1.6l.08.95.08.33m.58 1.58l.42.7.6.7.62.53m1.47.82l.3.13.92.22h1.5m1.98 0h2.98m2 0h2.98m2 0h2.98m2 0h2.98m2 0h2.97m2 0h2.98m2 0h2.98m2 0h2.97m2 0h2.98m2 0h2.98m2 0h2.97m2 0l2.98.02m2 0h3m1.98 0h2.98m2 0h2.98m2 0h2.98m2 0h2.98m2 0h2.97m2 0h2.98m2 0h2.98m2 0h2.97m2 0h2.98m2 0h2.98m2 0h2.97m2 0l2.98.02m2 0h3m1.98 0h2.98m2 0h2.98m2 0h2.98m2 0h2.98m2 0h2.97m2 0h2.98m2 0h2.98m2 0h2.97m2 0h2.98m2 0h2.98m2 0l2.97.02m2 0h2.98m2 0h3m1.98 0h2.98m2 0h2.98m2 0h2.98m2 0h2.98m2 0h2.97m2 0h2.98m2 0h1.48l.94.08.32.08m1.58.58l.68.42.72.6.52.62m.8 1.47l.14.32.22.9v1.74m.02 2.3v3.48m.02 2.3l.02 3.47m0 2.32v1.73" stroke="#3a414a" fill="none"/><path d="M935.32 82.5l.6-.02V83h-1v-.54z" stroke="#3a414a" stroke-width=".05" fill="#3a414a"/><path d="M1175.43 158.42l-4.63-14.27h9.27z" stroke="#3a414a" fill="#3a414a"/><path d="M664 420c-13.25 0-24 10.75-24 24v72c0 13.25 10.75 24 24 24h112c13.25 0 24-10.75 24-24v-72c0-13.25-10.75-24-24-24z" stroke="#333" stroke-width="5" fill="#00c2a8"/><path d="M640 464h160" stroke="#333" stroke-width="5" fill="none"/><use xlink:href="#f" transform="matrix(1,0,0,1,672,420) translate(30.049999999999997 25.6)"/><use xlink:href="#b" transform="matrix(1,0,0,1,656,480) translate(5.074999999999996 25.6)"/><use xlink:href="#g" transform="matrix(1,0,0,1,656,480) translate(43.025 25.6)"/><path d="M720 383v18.12" stroke="#3a414a" fill="none"/><path d="M720.5 383h-1v-.5h1z" stroke="#3a414a" stroke-width=".05" fill="#3a414a"/><path d="M720 415.88l-4.64-14.26h9.28z" stroke="#3a414a" fill="#3a414a"/><path d="M720 220.46v20.66" stroke="#3a414a" fill="none"/><path d="M720.5 220.48h-1v-.52h1z" stroke="#3a414a" stroke-width=".05" fill="#3a414a"/><path d="M720 255.88l-4.64-14.26h9.28z" stroke="#3a414a" fill="#3a414a"/><path d="M664 580c-13.25 0-24 10.75-24 24v72c0 13.25 10.75 24 24 24h112c13.25 0 24-10.75 24-24v-72c0-13.25-10.75-24-24-24z" stroke="#333" stroke-width="5" fill="#00c2a8"/><path d="M640 624h160" stroke="#333" stroke-width="5" fill="none"/><use xlink:href="#h" transform="matrix(1,0,0,1,672,580) translate(27.70432098765432 16.57777777777778)"/><use xlink:href="#i" transform="matrix(1,0,0,1,672,580) translate(18.7425925925926 32.84444444444445)"/><use xlink:href="#b" transform="matrix(1,0,0,1,656,640) translate(10.049999999999997 25.6)"/><use xlink:href="#j" transform="matrix(1,0,0,1,656,640) translate(48 25.6)"/><use xlink:href="#k" transform="matrix(1,0,0,1,656,640) translate(68 25.6)"/><path d="M720 543v18.12" stroke="#3a414a" fill="none"/><path d="M720.5 543h-1v-.5h1z" stroke="#3a414a" stroke-width=".05" fill="#3a414a"/><path d="M720 575.88l-4.64-14.26h9.28z" stroke="#3a414a" fill="#3a414a"/><path d="M626 740c-8.84 0-16 7.16-16 16v48c0 8.84 7.16 16 16 16h188c8.84 0 16-7.16 16-16v-48c0-8.84-7.16-16-16-16z" stroke="#333" stroke-width="5" fill="#00c2a8"/><use xlink:href="#l" transform="matrix(1,0,0,1,618,748) translate(27.525000000000006 24.799999999999997)"/><use xlink:href="#m" transform="matrix(1,0,0,1,618,748) translate(91.525 24.799999999999997)"/><use xlink:href="#n" transform="matrix(1,0,0,1,618,748) translate(72.525 46.4)"/><path d="M720 703v18.12" stroke="#3a414a" fill="none"/><path d="M720.5 703h-1v-.5h1z" stroke="#3a414a" stroke-width=".05" fill="#3a414a"/><path d="M720 735.88l-4.64-14.26h9.28z" stroke="#3a414a" fill="#3a414a"/><path d="M460 926.46a8 8 0 0 1 8-8h84a8 8 0 0 1 8 8v64a8 8 0 0 1-8 8h-84a8 8 0 0 1-8-8z" stroke="#333" stroke-width="5" fill="#b8f5ed"/><use xlink:href="#o" transform="matrix(1,0,0,1,460,918.4641298592378) translate(17.529999999999994 44.4)"/><use xlink:href="#p" transform="matrix(1,0,0,1,460,918.4641298592378) translate(72.47999999999999 44.4)"/><path d="M600 926.46a8 8 0 0 1 8-8h84a8 8 0 0 1 8 8v64a8 8 0 0 1-8 8h-84a8 8 0 0 1-8-8z" stroke="#333" stroke-width="5" fill="#b8f5ed"/><use xlink:href="#o" transform="matrix(1,0,0,1,600,918.4641298592378) translate(17.529999999999994 44.4)"/><use xlink:href="#q" transform="matrix(1,0,0,1,600,918.4641298592378) translate(72.47999999999999 44.4)"/><path d="M740 926.46a8 8 0 0 1 8-8h84a8 8 0 0 1 8 8v64a8 8 0 0 1-8 8h-84a8 8 0 0 1-8-8z" stroke="#333" stroke-width="5" fill="#b8f5ed"/><use xlink:href="#o" transform="matrix(1,0,0,1,740,918.4641298592378) translate(17.529999999999994 44.4)"/><use xlink:href="#r" transform="matrix(1,0,0,1,740,918.4641298592378) translate(72.47999999999999 44.4)"/><path d="M880 926.46a8 8 0 0 1 8-8h84a8 8 0 0 1 8 8v64a8 8 0 0 1-8 8h-84a8 8 0 0 1-8-8z" stroke="#333" stroke-width="5" fill="#b8f5ed"/><use xlink:href="#o" transform="matrix(1,0,0,1,880,918.4641298592378) translate(17.529999999999994 44.4)"/><use xlink:href="#s" transform="matrix(1,0,0,1,880,918.4641298592378) translate(72.47999999999999 44.4)"/><path d="M540 868a8 8 0 0 1 8-8h344a8 8 0 0 1 8 8v2.46a8 8 0 0 1-8 8H548a8 8 0 0 1-8-8z" stroke="#333" stroke-width="5"/><path d="M537.03 869.23H516a6 6 0 0 0-6 6v24.4" stroke="#3a414a" fill="none"/><path d="M537.55 869.73h-.53v-1h.5z" stroke="#3a414a" stroke-width=".05" fill="#3a414a"/><path d="M510 914.4l-4.64-14.27h9.28z" stroke="#3a414a" fill="#3a414a"/><path d="M720 881.42v11.04a6 6 0 0 1-6 6h-62.84a1.16 1.16 0 0 0-1.16 1.17" stroke="#3a414a" fill="none"/><path d="M720.5 881.43h-1v-.5l1-.02z" stroke="#3a414a" stroke-width=".05" fill="#3a414a"/><path d="M650 914.4l-4.64-14.27h9.28z" stroke="#3a414a" fill="#3a414a"/><path d="M720 881.42v11.04a6 6 0 0 0 6 6h62.84a1.16 1.16 0 0 1 1.16 1.17" stroke="#3a414a" fill="none"/><path d="M720.5 881.43h-1v-.5l1-.02z" stroke="#3a414a" stroke-width=".05" fill="#3a414a"/><path d="M790 914.4l-4.64-14.27h9.28z" stroke="#3a414a" fill="#3a414a"/><path d="M902.97 869.23h1.75m3.5 0h3.5m3.52 0h3.5m3.5 0H924l.94.08.9.23.23.1m3.15 2.68l.13.2.36.88.23.9v2.12m0 4.23l.03 4.22m0 4.22l.02 4.22m0 4.22l.02 2.1" stroke="#3a414a" fill="none"/><path d="M902.98 869.73h-.5l-.03-1h.53z" stroke="#3a414a" stroke-width=".05" fill="#3a414a"/><path d="M930 914.4l-4.64-14.27h9.28z" stroke="#3a414a" fill="#3a414a"/><path d="M941.92 270.4c-12.1 0-21.92 9.8-21.92 21.92v65.76c0 12.1 9.8 21.92 21.92 21.92h91.6c12.1 0 21.9-9.8 21.9-21.92v-65.76c0-12.1-9.8-21.92-21.9-21.92z" stroke="#333" stroke-width="5" fill="#00c2a8"/><path d="M920 314.4h135.43" stroke="#333" stroke-width="5" fill="none"/><use xlink:href="#a" transform="matrix(1,0,0,1,947.0866141732284,270.4) translate(14.074999999999996 25.6)"/><use xlink:href="#t" transform="matrix(1,0,0,1,933.5433070866143,330.4) translate(33.575 20.6)"/><path d="M1129.64 270.4c-12.1 0-21.92 9.8-21.92 21.92v65.76c0 12.1 9.8 21.92 21.92 21.92h91.6c12.1 0 21.9-9.8 21.9-21.92v-65.76c0-12.1-9.8-21.92-21.9-21.92z" stroke="#333" stroke-width="5" fill="#00c2a8"/><path d="M1107.72 314.4h135.43" stroke="#333" stroke-width="5" fill="none"/><use xlink:href="#a" transform="matrix(1,0,0,1,1134.8031496062993,270.4) translate(14.074999999999996 25.6)"/><use xlink:href="#u" transform="matrix(1,0,0,1,1121.2598425196852,330.4) translate(22.549999999999997 14.4)"/><use xlink:href="#v" transform="matrix(1,0,0,1,1121.2598425196852,330.4) translate(0.5749999999999957 36)"/><use xlink:href="#w" transform="matrix(1,0,0,1,1121.2598425196852,330.4) translate(48.525 36)"/><path d="M1317.35 270.4c-12.1 0-21.92 9.8-21.92 21.92v65.76c0 12.1 9.82 21.92 21.92 21.92h91.6c12.1 0 21.92-9.8 21.92-21.92v-65.76c0-12.1-9.82-21.92-21.92-21.92z" stroke="#333" stroke-width="5" fill="#00c2a8"/><path d="M1295.43 314.4h135.44" stroke="#333" stroke-width="5" fill="none"/><use xlink:href="#a" transform="matrix(1,0,0,1,1322.5196850393697,270.4) translate(14.074999999999996 25.6)"/><use xlink:href="#x" transform="matrix(1,0,0,1,1308.9763779527557,330.4) translate(5.599999999999994 14.4)"/><use xlink:href="#y" transform="matrix(1,0,0,1,1308.9763779527557,330.4) translate(67.5 14.4)"/><use xlink:href="#z" transform="matrix(1,0,0,1,1308.9763779527557,330.4) translate(28.075 36)"/><path d="M1175.43 220.46v2.2m0 4.35v4.38m0 4.37v2.18l-.07.94-.22.92-.1.2m-2.68 3.15l-.2.13-.87.36-.93.22h-2m-4.02 0h-4.02m-4 0h-4.03m-4 0h-4.03m-4 0h-4.02m-4.02 0l-4 .02m-4.03 0h-4m-4.03 0h-4m-4.03 0h-4m-4.03 0h-4m-4.02 0h-4m-4.03 0l-4 .02m-4.03 0h-4m-4.03 0h-4.02m-4.02 0h-4m-4.03 0h-4m-4.03 0h-4m-4.03 0l-4 .02m-4.03 0h-4m-4.03 0h-4m-4.02 0h-4m-4.03 0h-4m-4.03 0h-2l-.94.1-.92.2-.22.1m-3.15 2.7l-.13.2-.36.86-.2.9-.08 2.54" stroke="#3a414a" fill="none"/><path d="M1175.93 220.48h-1v-.52h1z" stroke="#3a414a" stroke-width=".05" fill="#3a414a"/><path d="M987.72 266.28l-4.64-14.26h9.27z" stroke="#3a414a" fill="#3a414a"/><path d="M1175.43 220.46v1.96m0 3.9v3.92m0 3.9v3.92m0 3.92V245.83m0 3.8v1.9" stroke="#3a414a" fill="none"/><path d="M1175.93 220.48h-1v-.52h1z" stroke="#3a414a" stroke-width=".05" fill="#3a414a"/><path d="M1175.43 266.28l-4.63-14.26h9.27z" stroke="#3a414a" fill="#3a414a"/><path d="M1175.43 220.46v2.2m0 4.35v4.38m0 4.37v2.18l.08.94.23.92.1.2m2.68 3.15l.2.13.88.36.9.22h2.02m4.02 0h4m4.03 0h4m4.03 0h4m4.03 0h4.02m4.02 0l4 .02m4.03 0h4m4.03 0h4m4.03 0h4m4.03 0h4m4.02 0h4.02m4 0l4.03.02m4 0h4.03m4 0h4.03m4 0h4.02m4 0h4.03m4 0h4.03m4 0l4.03.02m4.02 0h4.02m4 0h4.03m4 0h4.03m4 0h4.03m4 0h2.02l.94.1.9.2.22.1m3.15 2.7l.13.2.36.86.22.9.07 2.54" stroke="#3a414a" fill="none"/><path d="M1175.93 220.48h-1v-.52h1z" stroke="#3a414a" stroke-width=".05" fill="#3a414a"/><path d="M1363.15 266.28l-4.64-14.26h9.28z" stroke="#3a414a" fill="#3a414a"/><path d="M1129.64 430.4c-12.1 0-21.92 9.8-21.92 21.92v65.76c0 12.1 9.8 21.92 21.92 21.92h91.6c12.1 0 21.9-9.8 21.9-21.92v-65.76c0-12.1-9.8-21.92-21.9-21.92z" stroke="#333" stroke-width="5" fill="#00c2a8"/><path d="M1107.72 474.4h135.43" stroke="#333" stroke-width="5" fill="none"/><use xlink:href="#a" transform="matrix(1,0,0,1,1134.8031496062993,430.4) translate(14.074999999999996 25.6)"/><use xlink:href="#A" transform="matrix(1,0,0,1,1121.2598425196852,490.4) translate(38.025 14.4)"/><use xlink:href="#c" transform="matrix(1,0,0,1,1121.2598425196852,490.4) translate(9.599999999999994 36)"/><path d="M1175.43 383v28.52" stroke="#3a414a" fill="none"/><path d="M1175.93 383h-1v-.5h1z" stroke="#3a414a" stroke-width=".05" fill="#3a414a"/><path d="M1175.43 426.28l-4.63-14.26h9.27z" stroke="#3a414a" fill="#3a414a"/><path d="M987.72 383v16.2a6 6 0 0 0 6 6h175.7a6 6 0 0 1 6 6v.32" stroke="#3a414a" fill="none"/><path d="M988.22 383h-1v-.5h1z" stroke="#3a414a" stroke-width=".05" fill="#3a414a"/><path d="M1175.43 426.28l-4.63-14.26h9.27z" stroke="#3a414a" fill="#3a414a"/><path d="M1363.15 383v16.2a6 6 0 0 1-6 6h-175.72a6 6 0 0 0-6 6v.32" stroke="#3a414a" fill="none"/><path d="M1363.65 383h-1v-.5h1z" stroke="#3a414a" stroke-width=".05" fill="#3a414a"/><path d="M1175.43 426.28l-4.63-14.26h9.27z" stroke="#3a414a" fill="#3a414a"/><path d="M1118.2 580c-13.25 0-24 10.75-24 24v72c0 13.25 10.75 24 24 24h112c13.26 0 24-10.75 24-24v-72c0-13.25-10.74-24-24-24z" stroke="#333" stroke-width="5" fill="#00c2a8"/><path d="M1094.2 624h160" stroke="#333" stroke-width="5" fill="none"/><g><use xlink:href="#h" transform="matrix(1,0,0,1,1126.208658675007,580) translate(27.70432098765432 16.57777777777778)"/><use xlink:href="#i" transform="matrix(1,0,0,1,1126.208658675007,580) translate(18.7425925925926 32.84444444444445)"/></g><g><use xlink:href="#o" transform="matrix(1,0,0,1,1110.208658675007,640) translate(4.599999999999994 14.799999999999999)"/><use xlink:href="#B" transform="matrix(1,0,0,1,1110.208658675007,640) translate(59.55 14.799999999999999)"/><use xlink:href="#C" transform="matrix(1,0,0,1,1110.208658675007,640) translate(88.45 14.799999999999999)"/><use xlink:href="#j" transform="matrix(1,0,0,1,1110.208658675007,640) translate(29.025 36.4)"/><use xlink:href="#k" transform="matrix(1,0,0,1,1110.208658675007,640) translate(49.025 36.4)"/></g><path d="M1175.43 543v18.12" stroke="#3a414a" fill="none"/><path d="M1175.93 543h-1v-.5h1z" stroke="#3a414a" stroke-width=".05" fill="#3a414a"/><path d="M1175.43 575.88l-4.63-14.26h9.27z" stroke="#3a414a" fill="#3a414a"/><path d="M1094.2 748a8 8 0 0 1 8-8h144a8 8 0 0 1 8 8v64a8 8 0 0 1-8 8h-144a8 8 0 0 1-8-8z" stroke="#333" stroke-width="5" fill="#b8f5ed"/><g><use xlink:href="#l" transform="matrix(1,0,0,1,1094.208658675007,740) translate(30.054999999999993 31.9)"/><use xlink:href="#D" transform="matrix(1,0,0,1,1094.208658675007,740) translate(94.055 31.9)"/><use xlink:href="#E" transform="matrix(1,0,0,1,1094.208658675007,740) translate(12.055000000000001 53.5)"/><use xlink:href="#F" transform="matrix(1,0,0,1,1094.208658675007,740) translate(67.005 53.5)"/></g><path d="M1174.2 703v18.16" stroke="#3a414a" fill="none"/><path d="M1174.7 703h-1v-.5h1z" stroke="#3a414a" stroke-width=".05" fill="#3a414a"/><path d="M1174.2 735.93l-4.63-14.27h9.27z" stroke="#3a414a" fill="#3a414a"/><path d="M935.43 83v1.6m0 2.17V90m0 2.14v3.23m0 2.15v3.23m0 2.15v3.23m0 2.15v3.22m0 2.16v1.6l-.07.95-.08.33m-.57 1.58l-.4.7-.62.7-.6.53m-1.5.82l-.3.13-.9.22h-1.5m-2 0h-3m-1.98 0h-3m-2 0h-2.98m-2 0h-2.98m-2 0h-3m-1.98 0h-3m-2 0H894m-2 0H889m-2 0h-3m-1.98 0h-3m-1.98 0l-3 .02m-2 0h-2.98m-2 0h-2.98m-2 0h-3m-1.98 0h-3m-2 0h-2.98m-2 0h-2.98m-2 0h-3m-1.98 0h-3m-2 0h-2.98m-2 0h-2.98m-2 0l-3 .02m-1.98 0h-3m-2 0h-2.98m-2 0h-2.98m-2 0h-3m-1.98 0h-3m-1.98 0h-3m-2 0h-2.98m-2 0h-2.98m-2 0h-3m-1.98 0h-3m-2 0l-2.98.02m-2 0h-2.98m-2 0h-3m-1.98 0h-3m-2 0h-2.98m-2 0h-2.98m-2 0h-3m-1.98 0h-3m-1.98 0H726l-.94.08-.32.08m-1.58.58l-.7.42-.7.6-.52.62m-.82 1.47l-.13.32-.23.9v1.74m0 2.3l-.03 3.48m0 2.3l-.02 3.47m0 2.32l-.02 1.73" stroke="#3a414a" fill="none"/><path d="M935.32 82.5l.6-.02V83h-1v-.54z" stroke="#3a414a" stroke-width=".05" fill="#3a414a"/><path d="M720 158.42l-4.64-14.27h9.28z" stroke="#3a414a" fill="#3a414a"/><defs><path fill="#333" d="M24 0v-248h52V0H24" id="G"/><path fill="#333" d="M175 0L67-191c6 58 2 128 3 191H24v-248h59L193-55c-6-58-2-129-3-193h46V0h-61" id="H"/><path fill="#333" d="M24-248c93 1 206-16 204 79-1 75-69 88-152 82V0H24v-248zm52 121c47 0 100 7 100-41 0-47-54-39-100-39v80" id="I"/><path fill="#333" d="M238-95c0 69-44 99-111 99C63 4 22-25 22-93v-155h51v151c-1 38 19 59 55 60 90 1 49-130 58-211h52v153" id="J"/><path fill="#333" d="M136-208V0H84v-208H4v-40h212v40h-80" id="K"/><g id="a"><use transform="matrix(0.05,0,0,0.05,0,0)" xlink:href="#G"/><use transform="matrix(0.05,0,0,0.05,5,0)" xlink:href="#H"/><use transform="matrix(0.05,0,0,0.05,17.950000000000003,0)" xlink:href="#I"/><use transform="matrix(0.05,0,0,0.05,29.950000000000003,0)" xlink:href="#J"/><use transform="matrix(0.05,0,0,0.05,42.900000000000006,0)" xlink:href="#K"/></g><path fill="#333" d="M127-220V0H93v-220H8v-28h204v28h-85" id="L"/><path fill="#333" d="M100-194c63 0 86 42 84 106H49c0 40 14 67 53 68 26 1 43-12 49-29l28 8c-11 28-37 45-77 45C44 4 14-33 15-96c1-61 26-98 85-98zm52 81c6-60-76-77-97-28-3 7-6 17-6 28h103" id="M"/><path fill="#333" d="M141 0L90-78 38 0H4l68-98-65-92h35l48 74 47-74h35l-64 92 68 98h-35" id="N"/><path fill="#333" d="M59-47c-2 24 18 29 38 22v24C64 9 27 4 27-40v-127H5v-23h24l9-43h21v43h35v23H59v120" id="O"/><g id="b"><use transform="matrix(0.05,0,0,0.05,0,0)" xlink:href="#L"/><use transform="matrix(0.05,0,0,0.05,8.950000000000001,0)" xlink:href="#M"/><use transform="matrix(0.05,0,0,0.05,18.950000000000003,0)" xlink:href="#N"/><use transform="matrix(0.05,0,0,0.05,27.950000000000003,0)" xlink:href="#O"/></g><path fill="#333" d="M30-248c118-7 216 8 213 122C240-48 200 0 122 0H30v-248zM63-27c89 8 146-16 146-99s-60-101-146-95v194" id="P"/><path fill="#333" d="M135-143c-3-34-86-38-87 0 15 53 115 12 119 90S17 21 10-45l28-5c4 36 97 45 98 0-10-56-113-15-118-90-4-57 82-63 122-42 12 7 21 19 24 35" id="Q"/><path fill="#333" d="M96-169c-40 0-48 33-48 73s9 75 48 75c24 0 41-14 43-38l32 2c-6 37-31 61-74 61-59 0-76-41-82-99-10-93 101-131 147-64 4 7 5 14 7 22l-32 3c-4-21-16-35-41-35" id="R"/><path fill="#333" d="M114-163C36-179 61-72 57 0H25l-1-190h30c1 12-1 29 2 39 6-27 23-49 58-41v29" id="S"/><path fill="#333" d="M24-231v-30h32v30H24zM24 0v-190h32V0H24" id="T"/><path fill="#333" d="M115-194c55 1 70 41 70 98S169 2 115 4C84 4 66-9 55-30l1 105H24l-1-265h31l2 30c10-21 28-34 59-34zm-8 174c40 0 45-34 45-75s-6-73-45-74c-42 0-51 32-51 76 0 43 10 73 51 73" id="U"/><path fill="#333" d="M100-194c62-1 85 37 85 99 1 63-27 99-86 99S16-35 15-95c0-66 28-99 85-99zM99-20c44 1 53-31 53-75 0-43-8-75-51-75s-53 32-53 75 10 74 51 75" id="V"/><path fill="#333" d="M117-194c89-4 53 116 60 194h-32v-121c0-31-8-49-39-48C34-167 62-67 57 0H25l-1-190h30c1 10-1 24 2 32 11-22 29-35 61-36" id="W"/><g id="c"><use transform="matrix(0.05,0,0,0.05,0,0)" xlink:href="#P"/><use transform="matrix(0.05,0,0,0.05,12.950000000000001,0)" xlink:href="#M"/><use transform="matrix(0.05,0,0,0.05,22.950000000000003,0)" xlink:href="#Q"/><use transform="matrix(0.05,0,0,0.05,31.950000000000003,0)" xlink:href="#R"/><use transform="matrix(0.05,0,0,0.05,40.95,0)" xlink:href="#S"/><use transform="matrix(0.05,0,0,0.05,46.900000000000006,0)" xlink:href="#T"/><use transform="matrix(0.05,0,0,0.05,50.85000000000001,0)" xlink:href="#U"/><use transform="matrix(0.05,0,0,0.05,60.85,0)" xlink:href="#O"/><use transform="matrix(0.05,0,0,0.05,65.85000000000001,0)" xlink:href="#T"/><use transform="matrix(0.05,0,0,0.05,69.80000000000001,0)" xlink:href="#V"/><use transform="matrix(0.05,0,0,0.05,79.80000000000001,0)" xlink:href="#W"/></g><path fill="#3a414a" d="M136-208V0H84v-208H4v-40h212v40h-80" id="X"/><path fill="#3a414a" d="M185-48c-13 30-37 53-82 52C43 2 14-33 14-96s30-98 90-98c62 0 83 45 84 108H66c0 31 8 55 39 56 18 0 30-7 34-22zm-45-69c5-46-57-63-70-21-2 6-4 13-4 21h74" id="Y"/><path fill="#3a414a" d="M144 0l-44-69L55 0H2l70-98-66-92h53l41 62 40-62h54l-67 91 71 99h-54" id="Z"/><path fill="#3a414a" d="M115-3C79 11 28 4 28-45v-112H4v-33h27l15-45h31v45h36v33H77v99c-1 23 16 31 38 25v30" id="aa"/><path fill="#3a414a" d="M14-72v-43h91v43H14" id="ab"/><path fill="#3a414a" d="M110-194c64 0 96 36 96 99 0 64-35 99-97 99-61 0-95-36-95-99 0-62 34-99 96-99zm-1 164c35 0 45-28 45-65 0-40-10-65-43-65-34 0-45 26-45 65 0 36 10 65 43 65" id="ac"/><path fill="#3a414a" d="M24 0v-248h52V0H24" id="ad"/><path fill="#3a414a" d="M220-157c-53 9-28 100-34 157h-49v-107c1-27-5-49-29-50C55-147 81-57 75 0H25l-1-190h47c2 12-1 28 3 38 10-53 101-56 108 0 13-22 24-43 59-42 82 1 51 116 57 194h-49v-107c-1-25-5-48-29-50" id="ae"/><path fill="#3a414a" d="M133-34C117-15 103 5 69 4 32 3 11-16 11-54c-1-60 55-63 116-61 1-26-3-47-28-47-18 1-26 9-28 27l-52-2c7-38 36-58 82-57s74 22 75 68l1 82c-1 14 12 18 25 15v27c-30 8-71 5-69-32zm-48 3c29 0 43-24 42-57-32 0-66-3-65 30 0 17 8 27 23 27" id="af"/><path fill="#3a414a" d="M195-6C206 82 75 100 31 46c-4-6-6-13-8-21l49-6c3 16 16 24 34 25 40 0 42-37 40-79-11 22-30 35-61 35-53 0-70-43-70-97 0-56 18-96 73-97 30 0 46 14 59 34l2-30h47zm-90-29c32 0 41-27 41-63 0-35-9-62-40-62-32 0-39 29-40 63 0 36 9 62 39 62" id="ag"/><g id="d"><use transform="matrix(0.09259259259259256,0,0,0.09259259259259256,0,0)" xlink:href="#X"/><use transform="matrix(0.09259259259259256,0,0,0.09259259259259256,17.77777777777777,0)" xlink:href="#Y"/><use transform="matrix(0.09259259259259256,0,0,0.09259259259259256,36.29629629629628,0)" xlink:href="#Z"/><use transform="matrix(0.09259259259259256,0,0,0.09259259259259256,54.814814814814795,0)" xlink:href="#aa"/><use transform="matrix(0.09259259259259256,0,0,0.09259259259259256,65.83333333333331,0)" xlink:href="#ab"/><use transform="matrix(0.09259259259259256,0,0,0.09259259259259256,76.85185185185183,0)" xlink:href="#aa"/><use transform="matrix(0.09259259259259256,0,0,0.09259259259259256,87.87037037037035,0)" xlink:href="#ac"/><use transform="matrix(0.09259259259259256,0,0,0.09259259259259256,108.14814814814812,0)" xlink:href="#ab"/><use transform="matrix(0.09259259259259256,0,0,0.09259259259259256,119.16666666666664,0)" xlink:href="#ad"/><use transform="matrix(0.09259259259259256,0,0,0.09259259259259256,128.4259259259259,0)" xlink:href="#ae"/><use transform="matrix(0.09259259259259256,0,0,0.09259259259259256,158.05555555555551,0)" xlink:href="#af"/><use transform="matrix(0.09259259259259256,0,0,0.09259259259259256,176.57407407407402,0)" xlink:href="#ag"/><use transform="matrix(0.09259259259259256,0,0,0.09259259259259256,196.8518518518518,0)" xlink:href="#Y"/></g><g id="e"><use transform="matrix(0.09259259259259256,0,0,0.09259259259259256,0,0)" xlink:href="#ad"/><use transform="matrix(0.09259259259259256,0,0,0.09259259259259256,9.259259259259256,0)" xlink:href="#ae"/><use transform="matrix(0.09259259259259256,0,0,0.09259259259259256,38.88888888888887,0)" xlink:href="#af"/><use transform="matrix(0.09259259259259256,0,0,0.09259259259259256,57.40740740740739,0)" xlink:href="#ag"/><use transform="matrix(0.09259259259259256,0,0,0.09259259259259256,77.68518518518516,0)" xlink:href="#Y"/><use transform="matrix(0.09259259259259256,0,0,0.09259259259259256,96.20370370370367,0)" xlink:href="#ab"/><use transform="matrix(0.09259259259259256,0,0,0.09259259259259256,107.22222222222219,0)" xlink:href="#aa"/><use transform="matrix(0.09259259259259256,0,0,0.09259259259259256,118.2407407407407,0)" xlink:href="#ac"/><use transform="matrix(0.09259259259259256,0,0,0.09259259259259256,138.51851851851848,0)" xlink:href="#ab"/><use transform="matrix(0.09259259259259256,0,0,0.09259259259259256,149.53703703703698,0)" xlink:href="#ad"/><use transform="matrix(0.09259259259259256,0,0,0.09259259259259256,158.79629629629625,0)" xlink:href="#ae"/><use transform="matrix(0.09259259259259256,0,0,0.09259259259259256,188.42592592592587,0)" xlink:href="#af"/><use transform="matrix(0.09259259259259256,0,0,0.09259259259259256,206.94444444444437,0)" xlink:href="#ag"/><use transform="matrix(0.09259259259259256,0,0,0.09259259259259256,227.22222222222214,0)" xlink:href="#Y"/></g><path fill="#333" d="M24 0v-248h52v208h133V0H24" id="ah"/><g id="f"><use transform="matrix(0.05,0,0,0.05,0,0)" xlink:href="#H"/><use transform="matrix(0.05,0,0,0.05,12.950000000000001,0)" xlink:href="#ah"/><use transform="matrix(0.05,0,0,0.05,23.900000000000002,0)" xlink:href="#I"/></g><path fill="#333" d="M30 0v-248h187v28H63v79h144v27H63v87h162V0H30" id="ai"/><path fill="#333" d="M141-36C126-15 110 5 73 4 37 3 15-17 15-53c-1-64 63-63 125-63 3-35-9-54-41-54-24 1-41 7-42 31l-33-3c5-37 33-52 76-52 45 0 72 20 72 64v82c-1 20 7 32 28 27v20c-31 9-61-2-59-35zM48-53c0 20 12 33 32 33 41-3 63-29 60-74-43 2-92-5-92 41" id="aj"/><g id="g"><use transform="matrix(0.05,0,0,0.05,0,0)" xlink:href="#ai"/><use transform="matrix(0.05,0,0,0.05,12,0)" xlink:href="#N"/><use transform="matrix(0.05,0,0,0.05,21,0)" xlink:href="#O"/><use transform="matrix(0.05,0,0,0.05,26,0)" xlink:href="#S"/><use transform="matrix(0.05,0,0,0.05,31.950000000000003,0)" xlink:href="#aj"/><use transform="matrix(0.05,0,0,0.05,41.95,0)" xlink:href="#R"/><use transform="matrix(0.05,0,0,0.05,50.95,0)" xlink:href="#O"/><use transform="matrix(0.05,0,0,0.05,55.95,0)" xlink:href="#T"/><use transform="matrix(0.05,0,0,0.05,59.900000000000006,0)" xlink:href="#V"/><use transform="matrix(0.05,0,0,0.05,69.9,0)" xlink:href="#W"/></g><path fill="#333" d="M169-182c-1-43-94-46-97-3 18 66 151 10 154 114 3 95-165 93-204 36-6-8-10-19-12-30l50-8c3 46 112 56 116 5-17-69-150-10-154-114-4-87 153-88 188-35 5 8 8 18 10 28" id="ak"/><path fill="#333" d="M115-3C79 11 28 4 28-45v-112H4v-33h27l15-45h31v45h36v33H77v99c-1 23 16 31 38 25v30" id="al"/><path fill="#333" d="M133-34C117-15 103 5 69 4 32 3 11-16 11-54c-1-60 55-63 116-61 1-26-3-47-28-47-18 1-26 9-28 27l-52-2c7-38 36-58 82-57s74 22 75 68l1 82c-1 14 12 18 25 15v27c-30 8-71 5-69-32zm-48 3c29 0 43-24 42-57-32 0-66-3-65 30 0 17 8 27 23 27" id="am"/><path fill="#333" d="M135-194c52 0 70 43 70 98 0 56-19 99-73 100-30 1-46-15-58-35L72 0H24l1-261h50v104c11-23 29-37 60-37zM114-30c31 0 40-27 40-66 0-37-7-63-39-63s-41 28-41 65c0 36 8 64 40 64" id="an"/><path fill="#333" d="M25 0v-261h50V0H25" id="ao"/><path fill="#333" d="M185-48c-13 30-37 53-82 52C43 2 14-33 14-96s30-98 90-98c62 0 83 45 84 108H66c0 31 8 55 39 56 18 0 30-7 34-22zm-45-69c5-46-57-63-70-21-2 6-4 13-4 21h74" id="ap"/><g id="h"><use transform="matrix(0.03765432098765432,0,0,0.03765432098765432,0,0)" xlink:href="#ak"/><use transform="matrix(0.03765432098765432,0,0,0.03765432098765432,9.037037037037036,0)" xlink:href="#al"/><use transform="matrix(0.03765432098765432,0,0,0.03765432098765432,13.517901234567901,0)" xlink:href="#am"/><use transform="matrix(0.03765432098765432,0,0,0.03765432098765432,21.048765432098765,0)" xlink:href="#an"/><use transform="matrix(0.03765432098765432,0,0,0.03765432098765432,29.295061728395062,0)" xlink:href="#ao"/><use transform="matrix(0.03765432098765432,0,0,0.03765432098765432,33.06049382716049,0)" xlink:href="#ap"/></g><path fill="#333" d="M24-248c120-7 223 5 221 122C244-46 201 0 124 0H24v-248zM76-40c74 7 117-18 117-86 0-67-45-88-117-82v168" id="aq"/><path fill="#333" d="M25-224v-37h50v37H25zM25 0v-190h50V0H25" id="ar"/><path fill="#333" d="M121-226c-27-7-43 5-38 36h38v33H83V0H34v-157H6v-33h28c-9-59 32-81 87-68v32" id="as"/><path fill="#333" d="M85 4C-2 5 27-109 22-190h50c7 57-23 150 33 157 60-5 35-97 40-157h50l1 190h-47c-2-12 1-28-3-38-12 25-28 42-61 42" id="at"/><path fill="#333" d="M137-138c1-29-70-34-71-4 15 46 118 7 119 86 1 83-164 76-172 9l43-7c4 19 20 25 44 25 33 8 57-30 24-41C81-84 22-81 20-136c-2-80 154-74 161-7" id="au"/><path fill="#333" d="M110-194c64 0 96 36 96 99 0 64-35 99-97 99-61 0-95-36-95-99 0-62 34-99 96-99zm-1 164c35 0 45-28 45-65 0-40-10-65-43-65-34 0-45 26-45 65 0 36 10 65 43 65" id="av"/><path fill="#333" d="M135-194c87-1 58 113 63 194h-50c-7-57 23-157-34-157-59 0-34 97-39 157H25l-1-190h47c2 12-1 28 3 38 12-26 28-41 61-42" id="aw"/><g id="i"><use transform="matrix(0.03765432098765432,0,0,0.03765432098765432,0,0)" xlink:href="#aq"/><use transform="matrix(0.03765432098765432,0,0,0.03765432098765432,9.752469135802468,0)" xlink:href="#ar"/><use transform="matrix(0.03765432098765432,0,0,0.03765432098765432,13.5179012345679,0)" xlink:href="#as"/><use transform="matrix(0.03765432098765432,0,0,0.03765432098765432,17.998765432098764,0)" xlink:href="#as"/><use transform="matrix(0.03765432098765432,0,0,0.03765432098765432,22.479629629629628,0)" xlink:href="#at"/><use transform="matrix(0.03765432098765432,0,0,0.03765432098765432,30.725925925925925,0)" xlink:href="#au"/><use transform="matrix(0.03765432098765432,0,0,0.03765432098765432,38.25679012345678,0)" xlink:href="#ar"/><use transform="matrix(0.03765432098765432,0,0,0.03765432098765432,42.02222222222221,0)" xlink:href="#av"/><use transform="matrix(0.03765432098765432,0,0,0.03765432098765432,50.268518518518505,0)" xlink:href="#aw"/></g><g id="j"><use transform="matrix(0.05,0,0,0.05,0,0)" xlink:href="#O"/><use transform="matrix(0.05,0,0,0.05,5,0)" xlink:href="#V"/></g><path fill="#333" d="M33 0v-248h34V0H33" id="ax"/><path fill="#333" d="M210-169c-67 3-38 105-44 169h-31v-121c0-29-5-50-35-48C34-165 62-65 56 0H25l-1-190h30c1 10-1 24 2 32 10-44 99-50 107 0 11-21 27-35 58-36 85-2 47 119 55 194h-31v-121c0-29-5-49-35-48" id="ay"/><path fill="#333" d="M177-190C167-65 218 103 67 71c-23-6-38-20-44-43l32-5c15 47 100 32 89-28v-30C133-14 115 1 83 1 29 1 15-40 15-95c0-56 16-97 71-98 29-1 48 16 59 35 1-10 0-23 2-32h30zM94-22c36 0 50-32 50-73 0-42-14-75-50-75-39 0-46 34-46 75s6 73 46 73" id="az"/><g id="k"><use transform="matrix(0.05,0,0,0.05,0,0)" xlink:href="#ax"/><use transform="matrix(0.05,0,0,0.05,5,0)" xlink:href="#ay"/><use transform="matrix(0.05,0,0,0.05,19.950000000000003,0)" xlink:href="#aj"/><use transform="matrix(0.05,0,0,0.05,29.950000000000003,0)" xlink:href="#az"/><use transform="matrix(0.05,0,0,0.05,39.95,0)" xlink:href="#M"/></g><path fill="#333" d="M140-251c81 0 123 46 123 126C263-46 219 4 140 4 59 4 17-45 17-125s42-126 123-126zm0 227c63 0 89-41 89-101s-29-99-89-99c-61 0-89 39-89 99S79-25 140-24" id="aA"/><path fill="#333" d="M84 4C-5 8 30-112 23-190h32v120c0 31 7 50 39 49 72-2 45-101 50-169h31l1 190h-30c-1-10 1-25-2-33-11 22-28 36-60 37" id="aB"/><path fill="#333" d="M33-154v-36h34v36H33zM33 0v-36h34V0H33" id="aC"/><g id="l"><use transform="matrix(0.05,0,0,0.05,0,0)" xlink:href="#aA"/><use transform="matrix(0.05,0,0,0.05,14,0)" xlink:href="#aB"/><use transform="matrix(0.05,0,0,0.05,24,0)" xlink:href="#O"/><use transform="matrix(0.05,0,0,0.05,29,0)" xlink:href="#U"/><use transform="matrix(0.05,0,0,0.05,39,0)" xlink:href="#aB"/><use transform="matrix(0.05,0,0,0.05,49,0)" xlink:href="#O"/><use transform="matrix(0.05,0,0,0.05,54,0)" xlink:href="#aC"/></g><path fill="#333" d="M143 4C61 4 22-44 18-125c-5-107 100-154 193-111 17 8 29 25 37 43l-32 9c-13-25-37-40-76-40-61 0-88 39-88 99 0 61 29 100 91 101 35 0 62-11 79-27v-45h-74v-28h105v86C228-13 192 4 143 4" id="aD"/><path fill="#333" d="M85-194c31 0 48 13 60 33l-1-100h32l1 261h-30c-2-10 0-23-3-31C134-8 116 4 85 4 32 4 16-35 15-94c0-66 23-100 70-100zm9 24c-40 0-46 34-46 75 0 40 6 74 45 74 42 0 51-32 51-76 0-42-9-74-50-73" id="aE"/><g id="m"><use transform="matrix(0.05,0,0,0.05,0,0)" xlink:href="#aD"/><use transform="matrix(0.05,0,0,0.05,14,0)" xlink:href="#M"/><use transform="matrix(0.05,0,0,0.05,24,0)" xlink:href="#W"/><use transform="matrix(0.05,0,0,0.05,34,0)" xlink:href="#M"/><use transform="matrix(0.05,0,0,0.05,44,0)" xlink:href="#S"/><use transform="matrix(0.05,0,0,0.05,49.95,0)" xlink:href="#aj"/><use transform="matrix(0.05,0,0,0.05,59.95,0)" xlink:href="#O"/><use transform="matrix(0.05,0,0,0.05,64.95,0)" xlink:href="#M"/><use transform="matrix(0.05,0,0,0.05,74.95,0)" xlink:href="#aE"/></g><g id="n"><use transform="matrix(0.05,0,0,0.05,0,0)" xlink:href="#ax"/><use transform="matrix(0.05,0,0,0.05,5,0)" xlink:href="#ay"/><use transform="matrix(0.05,0,0,0.05,19.950000000000003,0)" xlink:href="#aj"/><use transform="matrix(0.05,0,0,0.05,29.950000000000003,0)" xlink:href="#az"/><use transform="matrix(0.05,0,0,0.05,39.95,0)" xlink:href="#M"/><use transform="matrix(0.05,0,0,0.05,49.95,0)" xlink:href="#Q"/></g><g id="o"><use transform="matrix(0.05,0,0,0.05,0,0)" xlink:href="#ax"/><use transform="matrix(0.05,0,0,0.05,5,0)" xlink:href="#ay"/><use transform="matrix(0.05,0,0,0.05,19.950000000000003,0)" xlink:href="#aj"/><use transform="matrix(0.05,0,0,0.05,29.950000000000003,0)" xlink:href="#az"/><use transform="matrix(0.05,0,0,0.05,39.95,0)" xlink:href="#M"/></g><path fill="#333" d="M27 0v-27h64v-190l-56 39v-29l58-41h29v221h61V0H27" id="aF"/><use transform="matrix(0.05,0,0,0.05,0,0)" xlink:href="#aF" id="p"/><path fill="#333" d="M101-251c82-7 93 87 43 132L82-64C71-53 59-42 53-27h129V0H18c2-99 128-94 128-182 0-28-16-43-45-43s-46 15-49 41l-32-3c6-41 34-60 81-64" id="aG"/><use transform="matrix(0.05,0,0,0.05,0,0)" xlink:href="#aG" id="q"/><path fill="#333" d="M126-127c33 6 58 20 58 59 0 88-139 92-164 29-3-8-5-16-6-25l32-3c6 27 21 44 54 44 32 0 52-15 52-46 0-38-36-46-79-43v-28c39 1 72-4 72-42 0-27-17-43-46-43-28 0-47 15-49 41l-32-3c6-42 35-63 81-64 48-1 79 21 79 65 0 36-21 52-52 59" id="aH"/><use transform="matrix(0.05,0,0,0.05,0,0)" xlink:href="#aH" id="r"/><use transform="matrix(0.05,0,0,0.05,0,0)" xlink:href="#W" id="s"/><path fill="#333" d="M206 0h-36l-40-164L89 0H53L-1-190h32L70-26l43-164h34l41 164 42-164h31" id="aI"/><g id="t"><use transform="matrix(0.05,0,0,0.05,0,0)" xlink:href="#P"/><use transform="matrix(0.05,0,0,0.05,12.950000000000001,0)" xlink:href="#S"/><use transform="matrix(0.05,0,0,0.05,18.900000000000002,0)" xlink:href="#aj"/><use transform="matrix(0.05,0,0,0.05,28.900000000000002,0)" xlink:href="#aI"/></g><path fill="#333" d="M212-179c-10-28-35-45-73-45-59 0-87 40-87 99 0 60 29 101 89 101 43 0 62-24 78-52l27 14C228-24 195 4 139 4 59 4 22-46 18-125c-6-104 99-153 187-111 19 9 31 26 39 46" id="aJ"/><g id="u"><use transform="matrix(0.05,0,0,0.05,0,0)" xlink:href="#aJ"/><use transform="matrix(0.05,0,0,0.05,12.950000000000001,0)" xlink:href="#aj"/><use transform="matrix(0.05,0,0,0.05,22.950000000000003,0)" xlink:href="#U"/><use transform="matrix(0.05,0,0,0.05,32.95,0)" xlink:href="#O"/><use transform="matrix(0.05,0,0,0.05,37.95,0)" xlink:href="#aB"/><use transform="matrix(0.05,0,0,0.05,47.95,0)" xlink:href="#S"/><use transform="matrix(0.05,0,0,0.05,53.900000000000006,0)" xlink:href="#M"/></g><g id="v"><use transform="matrix(0.05,0,0,0.05,0,0)" xlink:href="#aB"/><use transform="matrix(0.05,0,0,0.05,10,0)" xlink:href="#Q"/><use transform="matrix(0.05,0,0,0.05,19,0)" xlink:href="#T"/><use transform="matrix(0.05,0,0,0.05,22.95,0)" xlink:href="#W"/><use transform="matrix(0.05,0,0,0.05,32.95,0)" xlink:href="#az"/></g><g id="w"><use transform="matrix(0.05,0,0,0.05,0,0)" xlink:href="#R"/><use transform="matrix(0.05,0,0,0.05,9,0)" xlink:href="#aj"/><use transform="matrix(0.05,0,0,0.05,19,0)" xlink:href="#ay"/><use transform="matrix(0.05,0,0,0.05,33.95,0)" xlink:href="#M"/><use transform="matrix(0.05,0,0,0.05,43.95,0)" xlink:href="#S"/><use transform="matrix(0.05,0,0,0.05,49.900000000000006,0)" xlink:href="#aj"/></g><path fill="#333" d="M232-93c-1 65-40 97-104 97C67 4 28-28 28-90v-158h33c8 89-33 224 67 224 102 0 64-133 71-224h33v155" id="aK"/><path fill="#333" d="M24 0v-261h32V0H24" id="aL"/><g id="x"><use transform="matrix(0.05,0,0,0.05,0,0)" xlink:href="#aK"/><use transform="matrix(0.05,0,0,0.05,12.950000000000001,0)" xlink:href="#U"/><use transform="matrix(0.05,0,0,0.05,22.950000000000003,0)" xlink:href="#aL"/><use transform="matrix(0.05,0,0,0.05,26.900000000000002,0)" xlink:href="#V"/><use transform="matrix(0.05,0,0,0.05,36.900000000000006,0)" xlink:href="#aj"/><use transform="matrix(0.05,0,0,0.05,46.900000000000006,0)" xlink:href="#aE"/></g><path fill="#333" d="M101-234c-31-9-42 10-38 44h38v23H63V0H32v-167H5v-23h27c-7-52 17-82 69-68v24" id="aM"/><g id="y"><use transform="matrix(0.05,0,0,0.05,0,0)" xlink:href="#aM"/><use transform="matrix(0.05,0,0,0.05,5,0)" xlink:href="#S"/><use transform="matrix(0.05,0,0,0.05,10.95,0)" xlink:href="#V"/><use transform="matrix(0.05,0,0,0.05,20.95,0)" xlink:href="#ay"/></g><path fill="#333" d="M179-190L93 31C79 59 56 82 12 73V49c39 6 53-20 64-50L1-190h34L92-34l54-156h33" id="aN"/><g id="z"><use transform="matrix(0.05,0,0,0.05,0,0)" xlink:href="#az"/><use transform="matrix(0.05,0,0,0.05,10,0)" xlink:href="#aj"/><use transform="matrix(0.05,0,0,0.05,20,0)" xlink:href="#aL"/><use transform="matrix(0.05,0,0,0.05,23.95,0)" xlink:href="#aL"/><use transform="matrix(0.05,0,0,0.05,27.899999999999995,0)" xlink:href="#M"/><use transform="matrix(0.05,0,0,0.05,37.9,0)" xlink:href="#S"/><use transform="matrix(0.05,0,0,0.05,43.85,0)" xlink:href="#aN"/></g><g id="A"><use transform="matrix(0.05,0,0,0.05,0,0)" xlink:href="#L"/><use transform="matrix(0.05,0,0,0.05,8.950000000000001,0)" xlink:href="#M"/><use transform="matrix(0.05,0,0,0.05,18.950000000000003,0)" xlink:href="#N"/><use transform="matrix(0.05,0,0,0.05,27.950000000000003,0)" xlink:href="#O"/></g><path fill="#333" d="M87 75C49 33 22-17 22-94c0-76 28-126 65-167h31c-38 41-64 92-64 168S80 34 118 75H87" id="aO"/><path fill="#333" d="M0 4l72-265h28L28 4H0" id="aP"/><g id="B"><use transform="matrix(0.05,0,0,0.05,0,0)" xlink:href="#aO"/><use transform="matrix(0.05,0,0,0.05,5.95,0)" xlink:href="#aI"/><use transform="matrix(0.05,0,0,0.05,18.900000000000002,0)" xlink:href="#aP"/></g><path fill="#333" d="M33-261c38 41 65 92 65 168S71 34 33 75H2C39 34 66-17 66-93S39-220 2-261h31" id="aQ"/><g id="C"><use transform="matrix(0.05,0,0,0.05,0,0)" xlink:href="#O"/><use transform="matrix(0.05,0,0,0.05,5,0)" xlink:href="#M"/><use transform="matrix(0.05,0,0,0.05,15,0)" xlink:href="#N"/><use transform="matrix(0.05,0,0,0.05,24,0)" xlink:href="#O"/><use transform="matrix(0.05,0,0,0.05,29,0)" xlink:href="#aQ"/></g><path fill="#333" d="M190 0L58-211 59 0H30v-248h39L202-35l-2-213h31V0h-41" id="aR"/><g id="D"><use transform="matrix(0.05,0,0,0.05,0,0)" xlink:href="#aR"/><use transform="matrix(0.05,0,0,0.05,12.950000000000001,0)" xlink:href="#M"/><use transform="matrix(0.05,0,0,0.05,22.950000000000003,0)" xlink:href="#aI"/></g><g id="E"><use transform="matrix(0.05,0,0,0.05,0,0)" xlink:href="#ax"/><use transform="matrix(0.05,0,0,0.05,5,0)" xlink:href="#ay"/><use transform="matrix(0.05,0,0,0.05,19.950000000000003,0)" xlink:href="#aj"/><use transform="matrix(0.05,0,0,0.05,29.950000000000003,0)" xlink:href="#az"/><use transform="matrix(0.05,0,0,0.05,39.95,0)" xlink:href="#M"/></g><g id="F"><use transform="matrix(0.05,0,0,0.05,0,0)" xlink:href="#az"/><use transform="matrix(0.05,0,0,0.05,10,0)" xlink:href="#M"/><use transform="matrix(0.05,0,0,0.05,20,0)" xlink:href="#W"/><use transform="matrix(0.05,0,0,0.05,30,0)" xlink:href="#M"/><use transform="matrix(0.05,0,0,0.05,40,0)" xlink:href="#S"/><use transform="matrix(0.05,0,0,0.05,45.95,0)" xlink:href="#aj"/><use transform="matrix(0.05,0,0,0.05,55.95,0)" xlink:href="#O"/><use transform="matrix(0.05,0,0,0.05,60.95,0)" xlink:href="#M"/><use transform="matrix(0.05,0,0,0.05,70.95,0)" xlink:href="#aE"/></g></defs></g></svg>